<svg width="18" height="19" viewBox="0 0 18 19" fill="none" xmlns="http://www.w3.org/2000/svg">
<g clip-path="url(#clip0_5875_2921)">
<path d="M5.60852 18.8434L7.66952 18.6299L11.5178 10.8847C11.5178 10.8847 12.8243 10.9539 14.7503 10.8847C15.9605 10.8083 17.1087 10.3152 18.0045 9.48708L18 9.49088L18 9.35256C17.1096 8.52919 15.969 8.0376 14.766 7.95872L14.7503 7.95796C12.825 7.8888 11.5178 7.95796 11.5178 7.95796L7.66952 0.21356L5.60852 -5.41846e-07L7.16402 5.23564L7.60052 7.8888C5.79709 7.79307 3.98992 7.98099 2.24327 8.44588L2.36477 8.41852L1.54352 6.34524L0.195017 6.34524L0.795017 9.02044C0.561018 9.13824 0.370517 9.24844 0.186016 9.367L0.212268 9.35104L0.000766345 9.35104C0.0352665 9.37536 0.0727668 9.39816 0.108017 9.42172C0.0735164 9.44604 0.0360161 9.46808 0.000766339 9.49316L0.212268 9.49316C0.369768 9.59576 0.560268 9.70596 0.756767 9.80628L0.795017 9.82376L0.195016 12.499L1.54352 12.499L2.36477 10.4257C3.66452 10.7776 5.15702 10.979 6.69527 10.979C7.01402 10.979 7.33052 10.9706 7.64477 10.9531L7.60127 10.9554L7.16477 13.6093L5.60927 18.8442L5.60852 18.8434Z" fill="white"/>
</g>
<defs>
<clipPath id="clip0_5875_2921">
<rect width="19" height="18" fill="white" transform="translate(18) rotate(90)"/>
</clipPath>
</defs>
</svg>
