<svg width="126" height="37" viewBox="0 0 126 37" fill="none" xmlns="http://www.w3.org/2000/svg">
<circle cx="3.5" cy="15.5" r="3.5" fill="#F7941E"/>
<line x1="8" y1="15.5" x2="113" y2="15.5" stroke="black" stroke-opacity="0.5" stroke-dasharray="2 2"/>
<path d="M54.6 5.064C54.6 4.432 54.248 4.024 53.416 4.024H52.344V6.136H53.416C54.24 6.136 54.6 5.688 54.6 5.064ZM51.616 3.424H53.416C54.728 3.424 55.352 4.152 55.352 5.064C55.352 5.776 54.96 6.456 54.024 6.664L55.424 9H54.552L53.224 6.72H52.344V9H51.616V3.424ZM56.4672 6.944V3.424H57.1952V6.952C57.1952 7.976 57.7472 8.416 58.5712 8.416C59.3952 8.416 59.9392 7.976 59.9392 6.952V3.424H60.6672V6.944C60.6672 8.392 59.7152 9.056 58.5632 9.056C57.4112 9.056 56.4672 8.392 56.4672 6.944ZM65.4496 9V6.472H62.6096V9H61.8816V3.424H62.6096V5.872H65.4496V3.424H66.1776V9H65.4496Z" fill="#474747" fill-opacity="0.56"/>
<path d="M44.496 25.048C44.496 23.392 44.912 22.128 46.512 22.128C48.104 22.128 48.52 23.392 48.52 25.048C48.52 26.728 48.104 28 46.512 28C44.912 28 44.496 26.728 44.496 25.048ZM47.8 25.048C47.8 23.848 47.648 22.792 46.512 22.792C45.368 22.792 45.216 23.848 45.216 25.048C45.216 26.296 45.368 27.336 46.512 27.336C47.648 27.336 47.8 26.296 47.8 25.048ZM53.4154 23.592H52.7434C52.6314 23.032 52.3034 22.704 51.6474 22.704C50.7274 22.704 50.2314 23.336 50.2394 25.056C50.4874 24.488 51.1194 24.168 51.8074 24.168C52.8874 24.168 53.6154 24.88 53.6154 26.096C53.6154 27.152 52.9914 28.016 51.7274 28.016C50.0154 28.016 49.6074 26.784 49.6074 25.032C49.6074 23.216 50.1914 22.096 51.6554 22.096C52.7594 22.096 53.3194 22.784 53.4154 23.592ZM51.6554 24.784C50.9914 24.784 50.3274 25.176 50.3274 26.04C50.3274 26.808 50.7754 27.408 51.6874 27.408C52.4394 27.408 52.9114 26.904 52.9114 26.12C52.9114 25.304 52.4874 24.784 51.6554 24.784ZM58.2856 28V25.472H55.4456V28H54.7176V22.424H55.4456V24.872H58.2856V22.424H59.0136V28H58.2856ZM60.9608 27.552C60.9608 27.832 60.7448 28.048 60.4808 28.048C60.2008 28.048 59.9848 27.832 59.9848 27.552C59.9848 27.272 60.2008 27.056 60.4808 27.056C60.7448 27.056 60.9608 27.272 60.9608 27.552ZM60.9608 24.128C60.9608 24.408 60.7448 24.624 60.4808 24.624C60.2008 24.624 59.9848 24.408 59.9848 24.128C59.9848 23.848 60.2008 23.632 60.4808 23.632C60.7448 23.632 60.9608 23.848 60.9608 24.128ZM61.8319 25.048C61.8319 23.392 62.2479 22.128 63.8479 22.128C65.4399 22.128 65.8559 23.392 65.8559 25.048C65.8559 26.728 65.4399 28 63.8479 28C62.2479 28 61.8319 26.728 61.8319 25.048ZM65.1359 25.048C65.1359 23.848 64.9839 22.792 63.8479 22.792C62.7039 22.792 62.5519 23.848 62.5519 25.048C62.5519 26.296 62.7039 27.336 63.8479 27.336C64.9839 27.336 65.1359 26.296 65.1359 25.048ZM66.9754 28V22.464H67.7594L69.8074 27.04L71.8554 22.464H72.6314V28H71.9034V23.872L70.0634 28H69.5514L67.7034 23.864V28H66.9754Z" fill="#474747" fill-opacity="0.56"/>
<g clip-path="url(#clip0_5875_3004)">
<path d="M115.674 23.8656L117.391 23.6859L120.598 17.1657C120.598 17.1657 121.687 17.2239 123.292 17.1657C124.3 17.1014 125.257 16.6863 126.004 15.9891L126 15.9923L126 15.8759C125.258 15.1827 124.307 14.7689 123.305 14.7025L123.292 14.7019C121.687 14.6436 120.598 14.7019 120.598 14.7019L117.391 8.18235L115.674 8.00256L116.97 12.4101L117.334 14.6436C115.831 14.563 114.325 14.7212 112.869 15.1126L112.971 15.0896L112.286 13.3442L111.162 13.3442L111.662 15.5963C111.467 15.6955 111.309 15.7882 111.155 15.888L111.177 15.8746L111.001 15.8746C111.029 15.8951 111.061 15.9143 111.09 15.9341C111.061 15.9546 111.03 15.9731 111.001 15.9942L111.177 15.9942C111.308 16.0806 111.467 16.1734 111.631 16.2578L111.662 16.2726L111.162 18.5246L112.286 18.5246L112.971 16.7793C114.054 17.0755 115.297 17.245 116.579 17.245C116.845 17.245 117.109 17.238 117.371 17.2233L117.334 17.2252L116.971 19.4594L115.674 23.8663L115.674 23.8656Z" fill="#F7941E"/>
</g>
<defs>
<clipPath id="clip0_5875_3004">
<rect width="16" height="15" fill="white" transform="translate(126 8) rotate(90)"/>
</clipPath>
</defs>
</svg>
