<svg width="24" height="24" viewBox="0 0 24 24" fill="none" xmlns="http://www.w3.org/2000/svg">
<path fill-rule="evenodd" clip-rule="evenodd" d="M21.455 5.416C21.55 5.5602 21.5924 5.73278 21.5749 5.90458C21.5574 6.07639 21.4811 6.23689 21.359 6.359L12.166 15.551C12.072 15.645 11.9546 15.7123 11.826 15.746L7.99702 16.746C7.87045 16.779 7.73744 16.7783 7.61121 16.7441C7.48498 16.7098 7.3699 16.6431 7.27741 16.5506C7.18492 16.4581 7.11822 16.343 7.08395 16.2168C7.04967 16.0906 7.049 15.9576 7.08202 15.831L8.08202 12.003C8.11121 11.8881 8.16628 11.7814 8.24302 11.691L17.47 2.47C17.6106 2.32955 17.8013 2.25066 18 2.25066C18.1988 2.25066 18.3894 2.32955 18.53 2.47L21.359 5.298C21.3949 5.334 21.4271 5.37354 21.455 5.416ZM19.768 5.828L18 4.061L9.48202 12.579L8.85702 14.972L11.25 14.347L19.768 5.828Z" fill="white"/>
<path d="M19.641 17.16C19.9143 14.824 20.0016 12.4699 19.902 10.12C19.8998 10.0646 19.9091 10.0094 19.9292 9.95781C19.9494 9.90619 19.9799 9.85928 20.019 9.82L21.003 8.836C21.0299 8.80896 21.064 8.79026 21.1013 8.78215C21.1385 8.77403 21.1773 8.77685 21.213 8.79026C21.2487 8.80368 21.2798 8.82711 21.3025 8.85776C21.3252 8.8884 21.3386 8.92494 21.341 8.963C21.5262 11.7542 21.4559 14.5566 21.131 17.335C20.895 19.357 19.271 20.942 17.258 21.167C13.7633 21.554 10.2366 21.554 6.74199 21.167C4.72999 20.942 3.10499 19.357 2.86899 17.335C2.45439 13.7904 2.45439 10.2096 2.86899 6.665C3.10499 4.643 4.72899 3.058 6.74199 2.833C9.39436 2.53888 12.0667 2.46763 14.731 2.62C14.7691 2.62274 14.8057 2.63635 14.8363 2.65921C14.8669 2.68208 14.8904 2.71325 14.9038 2.74902C14.9173 2.7848 14.9202 2.82368 14.9123 2.86108C14.9044 2.89847 14.8859 2.9328 14.859 2.96L13.866 3.952C13.8271 3.99075 13.7807 4.02112 13.7296 4.04124C13.6785 4.06137 13.6239 4.07081 13.569 4.069C11.3458 3.99343 9.11995 4.07865 6.90899 4.324C6.26294 4.39551 5.65985 4.68272 5.19715 5.13925C4.73445 5.59578 4.43917 6.19496 4.35899 6.84C3.95804 10.2683 3.95804 13.7317 4.35899 17.16C4.43917 17.805 4.73445 18.4042 5.19715 18.8608C5.65985 19.3173 6.26294 19.6045 6.90899 19.676C10.264 20.051 13.736 20.051 17.092 19.676C17.7381 19.6045 18.3411 19.3173 18.8038 18.8608C19.2665 18.4042 19.5608 17.805 19.641 17.16Z" fill="white"/>
</svg>
