<svg width="19" height="18" viewBox="0 0 19 18" fill="none" xmlns="http://www.w3.org/2000/svg">
<path fill-rule="evenodd" clip-rule="evenodd" d="M4.15625 2.25H2.96875V7.875H4.15625V2.25ZM11.4 7.875H7.6L7.125 7.25625V6.13125L7.6 5.625H11.4L11.875 6.1875V7.3125L11.4 7.875ZM5.4625 11.25H1.6625L1.1875 10.6875V9.5625L1.6625 9H5.4625L5.9375 9.5625V10.6875L5.4625 11.25ZM10.0938 2.25H8.90625V4.5H10.0938V2.25ZM8.90625 9H10.0938V15.75H8.90625V9ZM4.15625 12.375H2.96875V15.75H4.15625V12.375ZM13.5375 12.375H17.3256L17.8006 11.8125V10.7438L17.3256 10.1813H13.5375L13.0625 10.7438V11.8125L13.5375 12.375ZM16.0312 2.25H14.8438V9H16.0312V2.25ZM14.8438 13.5H16.0312V15.75H14.8438V13.5Z" fill="white"/>
</svg>
