<svg width="168" height="33" viewBox="0 0 168 33" fill="none" xmlns="http://www.w3.org/2000/svg">
<line x1="45" y1="16.5" x2="125" y2="16.5" stroke="white" stroke-dasharray="2 2"/>
<path d="M15.18 24H11.418L5.126 14.474V24H1.364V8.556H5.126L11.418 18.126V8.556H15.18V24ZM31.151 8.556L25.805 18.896V24H22.043V18.896L16.697 8.556H20.965L23.957 15.024L26.927 8.556H31.151ZM36.6707 20.92H43.3147V24H32.4027V21.14L39.0027 11.636H32.4027V8.556H43.3147V11.416L36.6707 20.92Z" fill="white"/>
<path d="M128.726 16.256C128.726 14.7307 129.056 13.374 129.716 12.186C130.376 10.9833 131.293 10.052 132.466 9.392C133.654 8.71733 134.996 8.38 136.492 8.38C138.325 8.38 139.895 8.864 141.2 9.832C142.505 10.8 143.378 12.12 143.818 13.792H139.682C139.374 13.1467 138.934 12.6553 138.362 12.318C137.805 11.9807 137.167 11.812 136.448 11.812C135.289 11.812 134.351 12.2153 133.632 13.022C132.913 13.8287 132.554 14.9067 132.554 16.256C132.554 17.6053 132.913 18.6833 133.632 19.49C134.351 20.2967 135.289 20.7 136.448 20.7C137.167 20.7 137.805 20.5313 138.362 20.194C138.934 19.8567 139.374 19.3653 139.682 18.72H143.818C143.378 20.392 142.505 21.712 141.2 22.68C139.895 23.6333 138.325 24.11 136.492 24.11C134.996 24.11 133.654 23.78 132.466 23.12C131.293 22.4453 130.376 21.514 129.716 20.326C129.056 19.138 128.726 17.7813 128.726 16.256ZM155.736 21.272H149.972L149.048 24H145.11L150.698 8.556H155.054L160.642 24H156.66L155.736 21.272ZM154.768 18.368L152.854 12.714L150.962 18.368H154.768ZM166.105 8.556V24H162.343V8.556H166.105Z" fill="white"/>
</svg>
