<svg width="22" height="22" viewBox="0 0 22 22" fill="none" xmlns="http://www.w3.org/2000/svg">
<path fill-rule="evenodd" clip-rule="evenodd" d="M5.96042 3.92859C6.16881 3.92859 6.36866 4.01137 6.51601 4.15872C6.66336 4.30607 6.74614 4.50592 6.74614 4.7143V15.4L8.2331 13.9127C8.38048 13.7653 8.58035 13.6826 8.78874 13.6826C8.99713 13.6827 9.19697 13.7655 9.3443 13.9129C9.49163 14.0602 9.57437 14.2601 9.57434 14.4685C9.5743 14.6769 9.49148 14.8767 9.3441 15.0241L6.5666 17.8016L6.51867 17.8459L6.46839 17.8852C6.32357 18.0083 6.13901 18.0746 5.94898 18.0719C5.75894 18.0691 5.57637 17.9975 5.43517 17.8703L5.36524 17.8019L2.58735 15.0241C2.51438 14.9511 2.45648 14.8645 2.41698 14.7692C2.37748 14.6738 2.35713 14.5717 2.35712 14.4685C2.3571 14.3653 2.3774 14.2631 2.41687 14.1678C2.45634 14.0725 2.51421 13.9858 2.58715 13.9129C2.6601 13.8399 2.74671 13.782 2.84204 13.7425C2.93736 13.703 3.03953 13.6826 3.14271 13.6826C3.3511 13.6826 3.55097 13.7653 3.69835 13.9127L5.17471 15.389V4.7143C5.17471 4.50592 5.25749 4.30607 5.40484 4.15872C5.55219 4.01137 5.75204 3.92859 5.96042 3.92859ZM12.1786 11C12.387 11 12.5868 11.0828 12.7342 11.2301C12.8815 11.3775 12.9643 11.5773 12.9643 11.7857C12.9643 11.9941 12.8815 12.194 12.7342 12.3413C12.5868 12.4887 12.387 12.5714 12.1786 12.5714H9.03571C8.82732 12.5714 8.62747 12.4887 8.48012 12.3413C8.33278 12.194 8.24999 11.9941 8.24999 11.7857C8.24999 11.5773 8.33278 11.3775 8.48012 11.2301C8.62747 11.0828 8.82732 11 9.03571 11H12.1786ZM15.3214 7.85716C15.5298 7.85716 15.7297 7.93994 15.877 8.08729C16.0244 8.23464 16.1071 8.43449 16.1071 8.64287C16.1071 8.85126 16.0244 9.05111 15.877 9.19846C15.7297 9.34581 15.5298 9.42859 15.3214 9.42859H9.03571C8.82732 9.42859 8.62747 9.34581 8.48012 9.19846C8.33278 9.05111 8.24999 8.85126 8.24999 8.64287C8.24999 8.43449 8.33278 8.23464 8.48012 8.08729C8.62747 7.93994 8.82732 7.85716 9.03571 7.85716H15.3214ZM18.4643 4.7143C18.6727 4.7143 18.8725 4.79708 19.0199 4.94443C19.1672 5.09178 19.25 5.29163 19.25 5.50002C19.25 5.7084 19.1672 5.90825 19.0199 6.0556C18.8725 6.20295 18.6727 6.28573 18.4643 6.28573H9.03571C8.82732 6.28573 8.62747 6.20295 8.48012 6.0556C8.33278 5.90825 8.24999 5.7084 8.24999 5.50002C8.24999 5.29163 8.33278 5.09178 8.48012 4.94443C8.62747 4.79708 8.82732 4.7143 9.03571 4.7143H18.4643Z" fill="white"/>
</svg>
